<?xml version="1.0" encoding="UTF-8" standalone="no"?>
<svg width="536px" height="119px" viewBox="0 0 536 119" version="1.1" xmlns="http://www.w3.org/2000/svg" xmlns:xlink="http://www.w3.org/1999/xlink" xmlns:sketch="http://www.bohemiancoding.com/sketch/ns">
    <!-- Generator: Sketch 3.0.4 (8054) - http://www.bohemiancoding.com/sketch -->
    <title>diagram</title>
    <desc>Created with Sketch.</desc>
    <defs></defs>
    <g id="Page-1" stroke="none" stroke-width="1" fill="none" fill-rule="evenodd" sketch:type="MSPage">
        <g id="A4-4" sketch:type="MSArtboardGroup" transform="translate(-32.000000, -148.000000)">
            <g id="hero" sketch:type="MSLayerGroup" transform="translate(-18.000000, -68.000000)">
                <g id="diagram" transform="translate(51.000000, 216.000000)" sketch:type="MSShapeGroup">
                    <path d="M155.716124,53.8913934 L254.371292,53.8913934" id="wire" stroke="#FFFFFF" stroke-linecap="square"></path>
                    <path d="M301.181453,53.8913934 L399.83662,53.8913934" id="wire-2" stroke="#FFFFFF" stroke-linecap="square"></path>
                    <g id="laptop" transform="translate(381.724453, 7.803279)">
                        <g id="icon_1999" stroke="#FFFFFF">
                            <path d="M130.181521,0.4159384 L22.8963013,0.4159384 C20.3534599,0.4159384 18.2965021,2.47860507 18.2965021,5.02850373 L18.2965021,6.56243915 L18.2965021,69.5844372 C18.2965021,72.1281878 20.3534599,74.1970025 22.8963013,74.1970025 L24.4305895,74.1970025 L128.66256,74.1970025 L130.179988,74.1970025 C132.716698,74.1970025 134.779787,72.1281878 134.779787,69.5844372 L134.779787,6.56243915 L134.779787,5.02850373 C134.78132,2.47860507 132.72896,0.4159384 130.181521,0.4159384 L130.181521,0.4159384 Z M128.66256,68.0382057 L24.4305895,68.0382057 L24.4305895,6.56243915 L128.66256,6.56243915 L128.66256,68.0382057 L128.66256,68.0382057 Z" id="Shape"></path>
                            <path d="M134.945325,77.2879285 C134.021073,76.4318142 132.220085,75.7294009 130.961693,75.7294009 L22.1253253,75.7294009 C20.8623348,75.7294009 19.0720764,76.4318142 18.1478248,77.2879285 L-0.0965635949,94.1673661 L-0.0965635949,97.245996 C-0.0965635949,97.245996 -0.0965635949,101.858561 4.50323558,101.858561 L148.579185,101.858561 C153.178984,101.858561 153.178984,97.245996 153.178984,97.245996 L153.178984,94.1673661 L134.945325,77.2879285 L134.945325,77.2879285 Z M56.4023359,87.0586975 L96.6785516,87.0586975 L99.7839141,92.0754963 L53.2954406,92.0754963 L56.4023359,87.0586975 L56.4023359,87.0586975 Z M87.2674329,95.7135976 C87.2674329,96.5574158 86.5792257,97.245996 85.737743,97.245996 L67.3446773,97.245996 C66.4970635,97.245996 65.8149873,96.5574158 65.8149873,95.7135976 L65.8149873,94.1673661 L87.2659002,94.1673661 L87.2659002,95.7135976 L87.2674329,95.7135976 Z" id="Shape"></path>
                        </g>
                        <path d="M42.3480469,32.509375 L45.5425781,32.509375 C48.0423302,32.509375 49.2921875,34.0613126 49.2921875,37.1652344 C49.2921875,38.3509174 49.1298193,39.2307263 48.8050781,39.8046875 C48.4803369,40.3786487 47.9063843,40.8128892 47.0832031,41.1074219 C48.0272183,41.4850279 48.6729149,41.9683564 49.0203125,42.5574219 C49.3752622,43.1389352 49.5527344,44.0149681 49.5527344,45.1855469 C49.5527344,48.3951983 48.178269,50 45.4292969,50 L42.3480469,50 L42.3480469,32.509375 Z M44.5683594,40.2125 C45.482166,40.2125 46.1165347,40.0010438 46.4714844,39.578125 C46.8264341,39.1325499 47.0039063,38.350917 47.0039063,37.2332031 C47.0039063,35.3451729 46.3242255,34.4011719 44.9648438,34.4011719 L44.7835938,34.4011719 L44.6816406,34.4011719 C44.6212237,34.4011719 44.5834636,34.4049479 44.5683594,34.4125 L44.5683594,40.2125 Z M44.5683594,47.9835938 C45.5350309,47.9835938 46.2033836,47.7759135 46.5734375,47.3605469 C46.9434914,46.9451802 47.1285156,46.1937554 47.1285156,45.10625 C47.1285156,43.9885361 46.9359394,43.2069033 46.5507813,42.7613281 C46.1731752,42.3082009 45.5123745,42.0816406 44.5683594,42.0816406 L44.5683594,47.9835938 Z M51.8976563,32.509375 L55.0015625,32.509375 C56.2854231,32.509375 57.2407521,32.8152313 57.8675781,33.4269531 C58.6605508,34.2199258 59.0570313,35.4320231 59.0570313,37.0632813 C59.0570313,38.3169334 58.847463,39.3232384 58.4283203,40.0822266 C58.0091776,40.8412147 57.410681,41.3113272 56.6328125,41.4925781 L59.85,50 L57.4597656,50 L54.2539063,41.4359375 L54.2539063,50 L51.8976563,50 L51.8976563,32.509375 Z M54.2539063,40.2578125 C55.1677129,40.2578125 55.8134096,40.0463563 56.1910156,39.6234375 C56.5686217,39.2005187 56.7574219,38.486854 56.7574219,37.4824219 C56.7574219,36.9386692 56.7177738,36.4742207 56.6384766,36.0890625 C56.5591793,35.7039043 56.4345712,35.390496 56.2646484,35.1488281 C56.0947257,34.9071603 55.8757175,34.7296881 55.6076172,34.6164063 C55.3395169,34.5031244 55.0204446,34.4464844 54.6503906,34.4464844 L54.2539063,34.4464844 L54.2539063,40.2578125 Z M61.6738281,32.509375 L67.9382813,32.509375 L67.9382813,34.503125 L64.0300781,34.503125 L64.0300781,40.0425781 L67.4964844,40.0425781 L67.4964844,42.0363281 L64.0300781,42.0363281 L64.0300781,48.00625 L67.9382813,48.00625 L67.9382813,50 L61.6738281,50 L61.6738281,32.509375 Z M68.7878906,32.509375 L71.0648438,32.509375 L72.2542969,40.6316406 L72.446875,41.8324219 C72.5375005,42.4819043 72.6054685,43.0747369 72.6507813,43.6109375 L72.7753906,45.0949219 C72.7829427,45.1326825 72.7904948,45.2006506 72.7980469,45.2988281 C72.805599,45.3970057 72.816927,45.5216138 72.8320313,45.6726563 L72.8886719,45.10625 C72.9792973,44.1169221 73.0755854,43.2069052 73.1775391,42.3761719 C73.2794927,41.5454386 73.3908848,40.7789098 73.5117188,40.0765625 L74.7691406,32.509375 L76.5816406,32.509375 L77.7597656,39.8613281 C77.9334644,40.9488336 78.0788406,41.9570266 78.1958984,42.8859375 C78.3129563,43.8148484 78.4092444,44.7022093 78.4847656,45.5480469 C78.5602868,44.6568966 78.6452469,43.7959677 78.7396484,42.9652344 C78.83405,42.1345011 78.9341141,41.3188842 79.0398438,40.5183594 L79.2097656,39.3515625 L80.2179688,32.509375 L82.4722656,32.509375 L79.3796875,50 L77.5445313,50 L76.3097656,42.4441406 C76.3022135,42.4139321 76.2833335,42.289324 76.253125,42.0703125 C76.2229165,41.851301 76.1776045,41.5378927 76.1171875,41.1300781 L75.8792969,39.3855469 C75.8641926,39.2496087 75.8396486,39.0457045 75.8056641,38.7738281 C75.7716795,38.5019518 75.7358075,38.1583354 75.6980469,37.7429688 L75.6414063,37.0179688 C75.626302,37.1916675 75.611198,37.3427077 75.5960938,37.4710938 C75.5809895,37.5994798 75.5696615,37.7052079 75.5621094,37.7882813 C75.5243488,38.2867212 75.4922527,38.6737616 75.4658203,38.9494141 C75.4393879,39.2250665 75.4223959,39.3930987 75.4148438,39.4535156 L75.1769531,41.1300781 C75.1240883,41.5152363 75.0825522,41.8173166 75.0523438,42.0363281 C75.0221353,42.2553396 74.9994792,42.3912758 74.984375,42.4441406 L73.7042969,50 L71.8125,50 L68.7878906,32.509375 Z M83.8542969,32.509375 L87.0488281,32.509375 C89.5485802,32.509375 90.7984375,34.0613126 90.7984375,37.1652344 C90.7984375,38.3509174 90.6360693,39.2307263 90.3113281,39.8046875 C89.9865869,40.3786487 89.4126343,40.8128892 88.5894531,41.1074219 C89.5334683,41.4850279 90.1791649,41.9683564 90.5265625,42.5574219 C90.8815122,43.1389352 91.0589844,44.0149681 91.0589844,45.1855469 C91.0589844,48.3951983 89.684519,50 86.9355469,50 L83.8542969,50 L83.8542969,32.509375 Z M86.0746094,40.2125 C86.988416,40.2125 87.6227847,40.0010438 87.9777344,39.578125 C88.3326841,39.1325499 88.5101563,38.350917 88.5101563,37.2332031 C88.5101563,35.3451729 87.8304755,34.4011719 86.4710938,34.4011719 L86.2898438,34.4011719 L86.1878906,34.4011719 C86.1274737,34.4011719 86.0897136,34.4049479 86.0746094,34.4125 L86.0746094,40.2125 Z M86.0746094,47.9835938 C87.0412809,47.9835938 87.7096336,47.7759135 88.0796875,47.3605469 C88.4497414,46.9451802 88.6347656,46.1937554 88.6347656,45.10625 C88.6347656,43.9885361 88.4421894,43.2069033 88.0570313,42.7613281 C87.6794252,42.3082009 87.0186245,42.0816406 86.0746094,42.0816406 L86.0746094,47.9835938 Z M102.092578,41.6851563 C102.092578,44.7739738 101.748962,46.967832 101.061719,48.2667969 C100.374476,49.5657617 99.2227945,50.2152344 97.6066406,50.2152344 C95.9074134,50.2152344 94.7104201,49.5166737 94.015625,48.1195313 C93.328382,46.7525973 92.9847656,44.3246268 92.9847656,40.8355469 C92.9847656,37.724073 93.324606,35.5226627 94.0042969,34.23125 C94.6915399,32.9322852 95.8545491,32.2828125 97.4933594,32.2828125 C98.9584709,32.2828125 100.04596,32.785021 100.755859,33.7894531 C101.224091,34.4615919 101.563931,35.4169209 101.775391,36.6554688 C101.98685,37.8033912 102.092578,39.4799369 102.092578,41.6851563 Z M99.6230469,41.934375 C99.6230469,38.9059744 99.4871107,36.8971404 99.2152344,35.9078125 C98.943358,34.9109325 98.3882854,34.4125 97.55,34.4125 C96.7117146,34.4125 96.152866,34.8693965 95.8734375,35.7832031 C95.6015611,36.7045619 95.465625,38.5548038 95.465625,41.3339844 C95.465625,43.8941534 95.6091131,45.6688753 95.8960938,46.6582031 C96.1906265,47.5946661 96.741923,48.0628906 97.55,48.0628906 C98.3429727,48.0628906 98.8867173,47.6248742 99.18125,46.7488281 C99.4757827,45.8803342 99.6230469,44.2755325 99.6230469,41.934375 Z M103.010156,32.509375 L105.298438,32.509375 L106.510547,35.8964844 C106.986331,37.2332098 107.269531,38.2111948 107.360156,38.8304688 C107.44323,38.4453106 107.535742,38.0714862 107.637695,37.7089844 C107.739649,37.3464826 107.847265,36.9839862 107.960547,36.6214844 L108.119141,36.1117188 L109.240625,32.509375 L111.619531,32.509375 L108.379688,41.11875 L111.619531,50 L109.240625,50 L108.085156,46.6695313 C107.85104,46.0049446 107.66224,45.408336 107.51875,44.8796875 C107.37526,44.351039 107.273308,43.8828145 107.212891,43.475 C107.152474,43.9809921 107.050522,44.4643206 106.907031,44.925 L106.510547,46.1710938 L106.306641,46.828125 L105.298438,50 L102.80625,50 L106.114063,41.11875 L103.010156,32.509375 Z" id="BREWBOX" fill="#FFFFFF"></path>
                        <path d="M49.5161253,26.2366667 C49.5344586,25.9891667 49.5344586,25.705 49.5344586,25.4666667 L48.810292,25.4666667 L47.627792,25.4666667 C47.6186253,25.7141667 47.6094586,25.9891667 47.6094586,26.2458333 L48.0311253,26.2641667 C48.0586253,26.2641667 48.067792,26.2825 48.067792,26.31 C48.0219586,26.6125 47.957792,26.9883333 47.902792,27.2541667 C47.8294586,27.6483333 47.7744586,27.9325 47.6736253,28.4 L47.6094586,28.4 C47.4811253,27.85 47.1511253,26.5208333 46.9769586,25.8425 C46.4544586,25.8425 45.8769586,25.8516667 45.7669586,25.87 C45.620292,26.2916667 45.1344586,27.8316667 44.987792,28.3633333 L44.932792,28.345 C44.877792,28.0333333 44.8136253,27.6575 44.7586253,27.2175 C44.6944586,26.7775 44.657792,26.4841667 44.6394586,26.2641667 L45.152792,26.2458333 C45.1711253,25.9891667 45.1711253,25.7141667 45.1711253,25.4666667 L43.805292,25.4666667 L42.760292,25.4666667 C42.7511253,25.705 42.7419586,25.9891667 42.7419586,26.2458333 L43.0719586,26.2733333 C43.0994586,26.2733333 43.117792,26.2916667 43.1269586,26.31 C43.227792,26.7041667 43.3194586,27.1075 43.4936253,27.7766667 C43.640292,28.3725 43.750292,28.785 43.9611253,29.5916667 C44.437792,29.5916667 44.960292,29.5825 45.2811253,29.5733333 C45.537792,28.9408333 45.8494586,28.1525 46.0511253,27.6208333 L46.1061253,27.6116667 C46.3169586,28.3816667 46.500292,28.9683333 46.6836253,29.5916667 C47.3344586,29.5916667 47.7561253,29.5825 48.040292,29.5733333 C48.2969586,28.8491667 48.452792,28.4091667 48.6636253,27.795 C48.8836253,27.1625 49.0394586,26.6858333 49.1769586,26.255 L49.5161253,26.2366667 Z M49.7269586,27.7033333 C49.7269586,28.9958333 50.652792,29.5916667 51.8719586,29.5916667 C52.3119586,29.5916667 53.1186253,29.4083333 53.6594586,29.1608333 C53.622792,28.9316667 53.5494586,28.6383333 53.485292,28.4 C53.182792,28.51 52.5869586,28.6566667 52.192792,28.6566667 C51.9544586,28.6566667 51.7161253,28.6383333 51.505292,28.4366667 C51.3861253,28.3175 51.2761253,28.1433333 51.257792,27.8408333 C52.0736253,27.8408333 53.017792,27.8408333 53.2561253,27.8133333 C53.3294586,27.8041667 53.7419586,27.41 53.7511253,27.2725 C53.7511253,26.6858333 53.5769586,26.2091667 53.2836253,25.8608333 C53.0361253,25.5766667 52.605292,25.375 52.0369586,25.375 C50.6619586,25.375 49.7269586,26.4016667 49.7269586,27.7033333 L49.7269586,27.7033333 Z M51.862792,26.145 C52.055292,26.145 52.192792,26.255 52.275292,26.42 C52.3394586,26.5575 52.3761253,26.7958333 52.3761253,26.9883333 C52.3761253,27.0525 52.3486253,27.0891667 52.2936253,27.0891667 C52.027792,27.0983333 51.5786253,27.1075 51.257792,27.1075 C51.2486253,26.7408333 51.312792,26.5666667 51.422792,26.3833333 C51.5511253,26.1816667 51.7069586,26.145 51.862792,26.145 L51.862792,26.145 Z M54.172792,29.5091667 C54.557792,29.5091667 55.0436253,29.5 55.4286253,29.5 L56.702792,29.5 C56.7119586,29.2616667 56.7119586,28.9958333 56.7119586,28.7483333 L56.180292,28.7208333 C56.1894586,27.0158333 56.2169586,24.6416667 56.2169586,23.12 C56.2169586,23.0925 56.207792,23.0833333 56.1894586,23.0833333 C56.097792,23.0833333 54.6036253,23.2758333 54.0994586,23.3308333 C54.090292,23.5691667 54.0811253,23.8441667 54.0811253,24.1008333 L54.7044586,24.1283333 L54.7044586,28.6841667 C54.7044586,28.7025 54.695292,28.7208333 54.667792,28.7208333 L54.1819586,28.7483333 C54.1819586,28.9866667 54.172792,29.2616667 54.172792,29.5091667 L54.172792,29.5091667 Z M57.1336253,27.7675 C57.1336253,28.895 57.995292,29.5916667 59.122792,29.5916667 C59.4986253,29.5916667 60.222792,29.4633333 60.8186253,29.1425 C60.7819586,28.9225 60.7086253,28.6475 60.6444586,28.4091667 C60.3694586,28.5191667 59.947792,28.6566667 59.5811253,28.6566667 C59.397792,28.6566667 59.122792,28.62 58.9669586,28.4366667 C58.8019586,28.2441667 58.682792,27.9966667 58.682792,27.5566667 C58.682792,27.1441667 58.7286253,26.8691667 58.8661253,26.6308333 C59.0036253,26.4108333 59.177792,26.3466667 59.3794586,26.3466667 C59.7461253,26.3466667 60.2136253,26.5758333 60.332792,26.6216667 C60.5161253,26.5208333 60.800292,25.8791667 60.800292,25.595 C60.580292,25.4666667 60.112792,25.375 59.782792,25.375 C58.160292,25.375 57.1336253,26.4658333 57.1336253,27.7675 L57.1336253,27.7675 Z M63.2569586,29.5916667 C63.7794586,29.5916667 64.237792,29.4725 64.595292,29.2433333 C65.1361253,28.895 65.5761253,28.2075 65.5761253,27.4008333 C65.5761253,26.585 65.2186253,26.0075 64.7511253,25.705 C64.3936253,25.485 63.9811253,25.375 63.495292,25.375 C62.945292,25.375 62.395292,25.5125 61.9919586,25.815 C61.4419586,26.2183333 61.1211253,26.8691667 61.1211253,27.5933333 C61.1211253,28.2991667 61.377792,28.7941667 61.7994586,29.1516667 C62.1661253,29.4633333 62.7161253,29.5916667 63.2569586,29.5916667 L63.2569586,29.5916667 Z M63.357792,28.8766667 C63.192792,28.8766667 63.055292,28.8125 62.9361253,28.6291667 C62.807792,28.4366667 62.725292,28.125 62.725292,27.4466667 C62.725292,26.8875 62.8169586,26.5391667 62.9636253,26.3191667 C63.082792,26.1541667 63.2294586,26.09 63.3944586,26.09 C63.5594586,26.09 63.7244586,26.1816667 63.825292,26.3741667 C63.9169586,26.5941667 63.990292,26.8783333 63.990292,27.4375 C63.990292,28.0516667 63.9444586,28.4183333 63.770292,28.6566667 C63.660292,28.8308333 63.5136253,28.8766667 63.357792,28.8766667 L63.357792,28.8766667 Z M66.6394586,26.4108333 L66.6394586,28.6658333 C66.6394586,28.6933333 66.630292,28.7116667 66.602792,28.7116667 L66.1444586,28.73 C66.135292,28.9683333 66.135292,29.2525 66.135292,29.5 L67.2719586,29.5 L68.4544586,29.5 L68.4544586,28.73 L68.087792,28.7116667 C68.087792,28.1708333 68.0969586,27.2358333 68.1061253,26.7041667 C68.2986253,26.5575 68.6011253,26.4383333 68.7844586,26.4383333 C68.9219586,26.4383333 69.0411253,26.475 69.0961253,26.6033333 C69.1511253,26.7133333 69.160292,26.86 69.160292,27.0158333 L69.160292,28.6658333 C69.160292,28.6841667 69.1511253,28.7025 69.1236253,28.7116667 L68.7936253,28.7391667 C68.7936253,28.9775 68.7844586,29.2525 68.7844586,29.5091667 C69.050292,29.5091667 69.4261253,29.5 69.765292,29.5 L70.9111253,29.5 C70.920292,29.2525 70.920292,28.9775 70.920292,28.73 L70.5536253,28.7116667 C70.562792,28.1433333 70.5719586,27.2633333 70.5719586,26.6766667 C70.755292,26.5666667 71.030292,26.4566667 71.2136253,26.4566667 C71.3786253,26.4566667 71.497792,26.5116667 71.5711253,26.6583333 C71.6261253,26.7866667 71.635292,26.9333333 71.635292,27.0983333 L71.635292,28.675 C71.635292,28.6933333 71.6169586,28.7116667 71.5986253,28.7116667 L71.277792,28.7391667 L71.277792,29.5091667 C71.5986253,29.5091667 72.020292,29.5 72.405292,29.5 L73.532792,29.5 C73.5419586,29.2525 73.5511253,28.9775 73.5511253,28.73 L73.0744586,28.7116667 C73.0836253,28.125 73.1019586,27.3825 73.1019586,26.7316667 C73.1019586,26.4475 72.982792,26.1175 72.8269586,25.9158333 C72.5886253,25.6133333 72.267792,25.3933333 71.8736253,25.3933333 C71.525292,25.3933333 71.360292,25.4483333 70.452792,25.9708333 L70.4069586,25.9708333 C70.3244586,25.8516667 69.957792,25.375 69.4719586,25.375 C69.0961253,25.375 68.940292,25.4391667 68.0969586,25.9341667 L68.060292,25.925 C68.032792,25.7508333 68.0144586,25.5766667 67.977792,25.4025 C67.977792,25.3933333 67.9686253,25.3841667 67.9594586,25.3841667 C67.9044586,25.3841667 66.520292,25.595 66.0986253,25.65 C66.0986253,25.8791667 66.0894586,26.1541667 66.0894586,26.3925 L66.6394586,26.4108333 Z M74.0186253,27.7033333 C74.0186253,28.9958333 74.9444586,29.5916667 76.1636253,29.5916667 C76.6036253,29.5916667 77.410292,29.4083333 77.9511253,29.1608333 C77.9144586,28.9316667 77.8411253,28.6383333 77.7769586,28.4 C77.4744586,28.51 76.8786253,28.6566667 76.4844586,28.6566667 C76.2461253,28.6566667 76.007792,28.6383333 75.7969586,28.4366667 C75.677792,28.3175 75.567792,28.1433333 75.5494586,27.8408333 C76.365292,27.8408333 77.3094586,27.8408333 77.547792,27.8133333 C77.6211253,27.8041667 78.0336253,27.41 78.042792,27.2725 C78.042792,26.6858333 77.8686253,26.2091667 77.575292,25.8608333 C77.327792,25.5766667 76.8969586,25.375 76.3286253,25.375 C74.9536253,25.375 74.0186253,26.4016667 74.0186253,27.7033333 L74.0186253,27.7033333 Z M76.1544586,26.145 C76.3469586,26.145 76.4844586,26.255 76.5669586,26.42 C76.6311253,26.5575 76.667792,26.7958333 76.667792,26.9883333 C76.667792,27.0525 76.640292,27.0891667 76.585292,27.0891667 C76.3194586,27.0983333 75.870292,27.1075 75.5494586,27.1075 C75.540292,26.7408333 75.6044586,26.5666667 75.7144586,26.3833333 C75.842792,26.1816667 75.9986253,26.145 76.1544586,26.145 L76.1544586,26.145 Z M82.1586253,29.5916667 C82.8369586,29.5916667 83.5061253,29.5091667 84.1386253,29.2616667 C84.120292,29.0233333 84.0836253,28.7391667 84.037792,28.4916667 C83.7536253,28.565 83.405292,28.6291667 83.0386253,28.6291667 C82.8369586,28.6291667 82.6169586,28.4733333 82.6169586,28.2166667 L82.6169586,27.0708333 C82.6169586,26.5666667 82.6261253,26.3833333 82.6261253,26.3008333 C83.047792,26.3008333 83.6161253,26.31 84.0011253,26.31 C84.0286253,26.035 84.037792,25.7233333 84.037792,25.4575 C83.6069586,25.4666667 83.0936253,25.4666667 82.6261253,25.4666667 C82.635292,25.2191667 82.6444586,24.385 82.6536253,24.1833333 C82.6536253,24.1558333 82.6444586,24.1466667 82.6261253,24.1466667 C82.5986253,24.1466667 81.7186253,24.4033333 81.260292,24.6325 C81.232792,24.8525 81.2144586,25.155 81.1869586,25.3933333 C81.1869586,25.4391667 81.1594586,25.4666667 81.122792,25.4666667 C80.9394586,25.485 80.7194586,25.5033333 80.5269586,25.5216667 C80.5086253,25.7691667 80.4994586,26.0441667 80.4994586,26.3008333 L81.1411253,26.3008333 C81.1411253,26.42 81.1319586,27.3091667 81.1319586,27.5016667 C81.1319586,27.6116667 81.122792,28.0791667 81.122792,28.5925 C81.122792,28.8491667 81.150292,29.06 81.4436253,29.3166667 C81.6819586,29.5275 81.9111253,29.5916667 82.1586253,29.5916667 L82.1586253,29.5916667 Z M86.595292,29.5916667 C87.117792,29.5916667 87.5761253,29.4725 87.9336253,29.2433333 C88.4744586,28.895 88.9144586,28.2075 88.9144586,27.4008333 C88.9144586,26.585 88.5569586,26.0075 88.0894586,25.705 C87.7319586,25.485 87.3194586,25.375 86.8336253,25.375 C86.2836253,25.375 85.7336253,25.5125 85.330292,25.815 C84.780292,26.2183333 84.4594586,26.8691667 84.4594586,27.5933333 C84.4594586,28.2991667 84.7161253,28.7941667 85.137792,29.1516667 C85.5044586,29.4633333 86.0544586,29.5916667 86.595292,29.5916667 L86.595292,29.5916667 Z M86.6961253,28.8766667 C86.5311253,28.8766667 86.3936253,28.8125 86.2744586,28.6291667 C86.1461253,28.4366667 86.0636253,28.125 86.0636253,27.4466667 C86.0636253,26.8875 86.155292,26.5391667 86.3019586,26.3191667 C86.4211253,26.1541667 86.567792,26.09 86.732792,26.09 C86.897792,26.09 87.062792,26.1816667 87.1636253,26.3741667 C87.255292,26.5941667 87.3286253,26.8783333 87.3286253,27.4375 C87.3286253,28.0516667 87.282792,28.4183333 87.1086253,28.6566667 C86.9986253,28.8308333 86.8519586,28.8766667 86.6961253,28.8766667 L86.6961253,28.8766667 Z M95.9636253,26.2366667 C95.972792,25.9891667 95.9819586,25.705 95.9819586,25.4666667 L95.202792,25.4666667 L94.157792,25.4666667 C94.1486253,25.705 94.1486253,25.9891667 94.1394586,26.2458333 L94.460292,26.2641667 C94.487792,26.2641667 94.4969586,26.2825 94.4969586,26.31 C94.405292,26.7041667 94.3411253,27.0066667 94.267792,27.3275 C94.185292,27.6575 94.0936253,27.9783333 93.992792,28.29 L93.9286253,28.29 C93.800292,27.8958333 93.6811253,27.5658333 93.5711253,27.2175 C93.4244586,26.7591667 93.332792,26.4566667 93.277792,26.2641667 L93.6994586,26.2458333 C93.7086253,25.9983333 93.7086253,25.7141667 93.7086253,25.4666667 L92.397792,25.4666667 L91.3161253,25.4666667 C91.3069586,25.705 91.297792,25.9891667 91.297792,26.2458333 L91.6461253,26.2641667 C91.6644586,26.2733333 91.6919586,26.2825 91.6919586,26.3008333 C91.8386253,26.6858333 92.0494586,27.245 92.2694586,27.8316667 C92.535292,28.5008333 92.755292,29.0416667 93.0394586,29.7475 C92.9019586,30.0866667 92.645292,30.3616667 92.3611253,30.6275 C92.1136253,30.8475 91.8844586,31.0033333 91.7011253,31.1041667 C91.7011253,31.3425 92.4986253,31.8741667 92.8011253,31.8741667 C93.0211253,31.7458333 93.2686253,31.3883333 93.5069586,31.0125 C93.992792,30.2516667 94.6161253,28.785 94.8636253,28.2075 C95.1386253,27.5291667 95.505292,26.585 95.6336253,26.255 L95.9636253,26.2366667 Z M98.2919586,29.5916667 C98.8144586,29.5916667 99.272792,29.4725 99.630292,29.2433333 C100.171125,28.895 100.611125,28.2075 100.611125,27.4008333 C100.611125,26.585 100.253625,26.0075 99.7861253,25.705 C99.4286253,25.485 99.0161253,25.375 98.530292,25.375 C97.980292,25.375 97.430292,25.5125 97.0269586,25.815 C96.4769586,26.2183333 96.1561253,26.8691667 96.1561253,27.5933333 C96.1561253,28.2991667 96.412792,28.7941667 96.8344586,29.1516667 C97.2011253,29.4633333 97.7511253,29.5916667 98.2919586,29.5916667 L98.2919586,29.5916667 Z M98.392792,28.8766667 C98.227792,28.8766667 98.090292,28.8125 97.9711253,28.6291667 C97.842792,28.4366667 97.760292,28.125 97.760292,27.4466667 C97.760292,26.8875 97.8519586,26.5391667 97.9986253,26.3191667 C98.117792,26.1541667 98.2644586,26.09 98.4294586,26.09 C98.5944586,26.09 98.7594586,26.1816667 98.860292,26.3741667 C98.9519586,26.5941667 99.025292,26.8783333 99.025292,27.4375 C99.025292,28.0516667 98.9794586,28.4183333 98.805292,28.6566667 C98.695292,28.8308333 98.5486253,28.8766667 98.392792,28.8766667 L98.392792,28.8766667 Z M106.037792,28.6566667 L105.524459,28.675 C105.496959,28.675 105.487792,28.6566667 105.487792,28.62 C105.487792,27.5658333 105.506125,26.4658333 105.515292,25.4941667 C105.515292,25.485 105.506125,25.4575 105.496959,25.4575 C105.359459,25.4575 103.911125,25.485 103.571959,25.4941667 C103.562792,25.7325 103.562792,26.0166667 103.553625,26.2733333 L104.002792,26.2916667 C104.002792,26.8416667 104.011959,27.7583333 104.002792,28.3816667 C103.828625,28.51 103.608625,28.5741667 103.452792,28.5741667 C103.333625,28.5741667 103.205292,28.565 103.095292,28.3908333 C102.976125,28.1891667 102.985292,27.8683333 102.985292,27.6025 C102.985292,26.9333333 103.012792,26.1266667 103.012792,25.485 C103.012792,25.4666667 103.003625,25.4483333 102.985292,25.4483333 C102.866125,25.4575 101.509459,25.4941667 101.133625,25.5125 C101.124459,25.7508333 101.115292,26.0166667 101.115292,26.2641667 L101.527792,26.2825 C101.518625,26.8783333 101.509459,27.6025 101.509459,28.2991667 C101.509459,28.8583333 102.206125,29.5916667 102.765292,29.5916667 C103.131959,29.5916667 103.306125,29.5641667 104.057792,29.1333333 L104.103625,29.1333333 C104.259459,29.3533333 104.387792,29.4908333 104.525292,29.5916667 C105.130292,29.5916667 105.936959,29.4633333 106.028625,29.4175 C106.028625,29.1791667 106.037792,28.895 106.037792,28.6566667 L106.037792,28.6566667 Z M106.450292,29.5091667 C106.835292,29.5091667 107.348625,29.5 107.751959,29.5 L109.136125,29.5 C109.154459,29.2525 109.154459,28.9958333 109.154459,28.7483333 L108.402792,28.7208333 L108.402792,28.2166667 C108.411959,27.96 108.430292,27.6666667 108.540292,27.4466667 C108.714459,27.1166667 108.851959,26.9516667 109.016959,26.8141667 C109.108625,26.7408333 109.191125,26.7316667 109.282792,26.7316667 C109.502792,26.7316667 109.777792,26.805 109.860292,26.8233333 C110.034459,26.6675 110.291125,25.925 110.291125,25.4941667 C110.107792,25.43 109.860292,25.375 109.631125,25.375 C109.172792,25.375 108.961959,25.4941667 108.393625,26.5758333 L108.338625,26.5666667 C108.311125,26.1725 108.274459,25.7875 108.246959,25.3933333 C108.246959,25.375 108.237792,25.375 108.228625,25.375 C108.182792,25.375 106.816959,25.5675 106.404459,25.6133333 C106.395292,25.8516667 106.386125,26.1175 106.386125,26.365 L106.926959,26.3925 L106.926959,28.7025 C106.926959,28.7208333 106.917792,28.73 106.890292,28.7391667 L106.459459,28.7575 C106.450292,28.9866667 106.450292,29.2616667 106.450292,29.5091667 L106.450292,29.5091667 Z" id="welcome-to-your" fill="#FFFFFF"></path>
                    </g>
                    <g id="brewbox" transform="translate(254.808394, 31.213115)">
                        <rect id="brewbox-2" stroke="#FFFFFF" x="0" y="0" width="45.8850365" height="45.8442623" rx="4"></rect>
                        <ellipse id="Oval-7" fill="#FFFFFF" cx="6.83394161" cy="6.82786885" rx="1.95255474" ry="1.95081967"></ellipse>
                        <ellipse id="Oval-8" fill="#FFFFFF" cx="13.6678832" cy="6.82786885" rx="1.95255474" ry="1.95081967"></ellipse>
                        <path d="M20.5018248,8.77868852 C21.580191,8.77868852 22.4543796,7.90527681 22.4543796,6.82786885 C22.4543796,5.7504609 21.580191,4.87704918 20.5018248,4.87704918 C19.4234586,4.87704918 18.5492701,5.7504609 18.5492701,6.82786885 C18.5492701,7.90527681 19.4234586,8.77868852 20.5018248,8.77868852 Z" id="Oval-9" fill="#FFFFFF"></path>
                    </g>
                    <g id="tanks">
                        <g id="tank-2" transform="translate(-0.248563, 11.720135)">
                            <g id="Rectangle-5-+-Rectangle-6" transform="translate(7.454256, 86.580724)" stroke="#FFFFFF">
                                <rect id="Rectangle-6" x="22.3627683" y="0" width="2.48475203" height="4.84222132"></rect>
                                <rect id="Rectangle-6" x="0" y="0" width="2.48475203" height="8.97900615"></rect>
                            </g>
                            <path d="M40.2093033,-3.13210759e-16 L7.99213927,-3.13210751e-16 C3.57820263,-3.1321075e-16 0,3.58445022 0,7.9968685 L0,79.2892916 C0,83.7058401 3.58598259,87.2861601 7.99213963,87.2861601 L40.2093051,87.2861601 L40.2093033,-3.13210759e-16 Z" id="Rectangle-2" stroke="#FFFFFF"></path>
                            <path d="M31.0594004,82.7356968 C33.8039817,82.7356968 36.0289044,80.5131748 36.0289044,77.7715549 C36.0289044,75.0299351 33.8039817,72.8074131 31.0594004,72.8074131 C28.3148191,72.8074131 26.0898963,75.0299351 26.0898963,77.7715549 C26.0898963,80.5131748 28.3148191,82.7356968 31.0594004,82.7356968 Z M31.0372616,73.6347701 L32.2132213,80.6673043 L29.8613019,80.6673043 L31.0372616,73.6347701 Z" id="Oval-1" fill="#FFFFFF"></path>
                        </g>
                        <g id="tank-3" transform="translate(115.306314, 11.720135)">
                            <g id="Rectangle-5-+-Rectangle-6" transform="translate(8.430533, 86.580724)" stroke="#FFFFFF">
                                <rect id="Rectangle-5" x="22.271157" y="-0.269973356" width="2.48475203" height="9.24897966"></rect>
                                <rect id="Rectangle-6" x="-0.0916112912" y="-0.269973356" width="2.48475203" height="5.11219475"></rect>
                            </g>
                            <path d="M-0.304081672,-2.86990597e-06 L-0.304081735,87.2861572 L32.2190201,87.2861595 C36.6414696,87.2861598 40.2265732,83.7017098 40.2265732,79.2892916 L40.2265732,7.9968685 C40.2265732,3.58031998 36.6475275,-2.53426074e-07 32.2190201,-5.67001072e-07 L-0.304081672,-2.86990597e-06 Z" id="Rectangle-2" stroke="#FFFFFF"></path>
                            <path d="M9.58129819,82.7356968 C12.3258795,82.7356968 14.5508022,80.5131748 14.5508022,77.7715549 C14.5508022,75.0299351 12.3258795,72.8074131 9.58129819,72.8074131 C6.83671688,72.8074131 4.61179413,75.0299351 4.61179413,77.7715549 C4.61179413,80.5131748 6.83671688,82.7356968 9.58129819,82.7356968 Z M9.55915941,73.6347701 L10.7351191,80.6673043 L8.38319972,80.6673043 L9.55915941,73.6347701 Z" id="Oval-1" fill="#FFFFFF"></path>
                        </g>
                        <g id="tank" transform="translate(39.193807, 0.000000)">
                            <g id="Rectangle-5-+-Rectangle-6" transform="translate(9.282744, 108.270492)" stroke="#FFFFFF">
                                <rect id="Rectangle-5" x="55.6964619" y="0" width="3.09424788" height="10.4943037"></rect>
                                <rect id="Rectangle-6" x="27.848231" y="0" width="3.09424788" height="8.39544294"></rect>
                                <rect id="Rectangle-6" x="0" y="0.148041063" width="3.09424788" height="10.2610969"></rect>
                            </g>
                            <path d="M38.6780986,103.030303 C42.0959104,103.030303 44.8665943,100.262609 44.8665943,96.8484848 C44.8665943,93.4343609 42.0959104,90.6666667 38.6780986,90.6666667 C35.2602867,90.6666667 32.4896028,93.4343609 32.4896028,96.8484848 C32.4896028,100.262609 35.2602867,103.030303 38.6780986,103.030303 Z M38.6505293,91.6969697 L40.1149453,100.454545 L37.1861132,100.454545 L38.6505293,91.6969697 Z" id="Oval-1" fill="#FFFFFF"></path>
                            <path d="M0,7.79539412 L0,100.901576 C0,105.206853 3.50134751,108.69697 7.80857416,108.69697 L69.031915,108.69697 C73.3444714,108.69697 76.8404891,105.203536 76.8404891,100.901576 L76.8404891,7.79539412 C76.8404891,3.49011683 73.3391416,0 69.031915,0 L7.80857416,0 C3.49601774,0 0,3.49343332 0,7.79539412 Z M69.031915,0.975409836 C72.802077,0.975409836 75.8642118,4.03093545 75.8642118,7.79539412 L75.8642118,100.901576 C75.8642118,104.665867 72.8042519,107.72156 69.031915,107.72156 L7.80857416,107.72156 C4.03841214,107.72156 0.976277372,104.666034 0.976277372,100.901576 L0.976277372,7.79539412 C0.976277372,4.0311025 4.0362372,0.975409836 7.80857416,0.975409836 L69.031915,0.975409836 Z" id="Rectangle-2" fill="#FFFFFF"></path>
                        </g>
                    </g>
                </g>
            </g>
        </g>
    </g>
</svg>