<?xml version="1.0" encoding="UTF-8" standalone="no"?>
<svg width="356px" height="81px" viewBox="0 0 356 81" version="1.1" xmlns="http://www.w3.org/2000/svg" xmlns:xlink="http://www.w3.org/1999/xlink" xmlns:sketch="http://www.bohemiancoding.com/sketch/ns">
    <!-- Generator: Sketch 3.0.4 (8054) - http://www.bohemiancoding.com/sketch -->
    <title>logo</title>
    <desc>Created with Sketch.</desc>
    <defs></defs>
    <g id="Page-1" stroke="none" stroke-width="1" fill="none" fill-rule="evenodd" sketch:type="MSPage">
        <g id="A4-4" sketch:type="MSArtboardGroup" transform="translate(-124.000000, -23.000000)" fill="#FFFFFF">
            <g id="hero" sketch:type="MSLayerGroup" transform="translate(-18.000000, -68.000000)">
                <g id="bg-+-logo" sketch:type="MSShapeGroup">
                    <g id="logo" transform="translate(142.000000, 91.000000)">
                        <g id="beta" transform="translate(319.967611, 0.720721)">
                            <path d="M3.99376849,0 C1.78807106,0 0,1.78778312 0,3.99093592 L0,17.6306857 C0,19.8348187 1.78685176,21.6216216 3.99376849,21.6216216 L32.0386202,21.6216216 C34.2443176,21.6216216 36.0323887,19.8338385 36.0323887,17.6306857 L36.0323887,3.99093592 C36.0323887,1.78680287 34.2455369,0 32.0386202,0 L3.99376849,0 Z M13.9766258,4.98873874 L17.8684052,4.98873874 L17.8684052,6.22747748 L15.4404415,6.22747748 L15.4404415,9.66920045 L17.5939398,9.66920045 L17.5939398,10.9079392 L15.4404415,10.9079392 L15.4404415,14.6171171 L17.8684052,14.6171171 L17.8684052,15.8558559 L13.9766258,15.8558559 L13.9766258,4.98873874 Z M18.3469604,4.98873874 L23.1113993,4.98873874 L23.1113993,6.26970721 L21.4716441,6.26970721 L21.4716441,15.8558559 L20.0359786,15.8558559 L20.0359786,6.26970721 L18.3469604,6.26970721 L18.3469604,4.98873874 Z M25.2648975,4.98873874 L26.4049848,4.98873874 L28.7344224,15.8558559 L27.2846818,15.8558559 L26.8765024,13.7373311 L24.7230042,13.7373311 L24.3077872,15.8558559 L22.900272,15.8558559 L25.2648975,4.98873874 Z M8.04394927,4.98873874 L10.0285457,4.98873874 C11.5815119,4.98873874 12.3579833,5.95297459 12.3579833,7.88147523 C12.3579833,8.61815308 12.2571124,9.16478801 12.0553675,9.5213964 C11.8536227,9.87800479 11.4970557,10.1478031 10.985656,10.3307995 C11.5721236,10.5654103 11.9732614,10.8657076 12.1890815,11.2317005 C12.4095933,11.5930011 12.5198475,12.1372899 12.5198475,12.8645833 C12.5198475,14.858775 11.6659635,15.8558559 9.95816991,15.8558559 L8.04394927,15.8558559 L8.04394927,4.98873874 Z" id="Rectangle-28"></path>
                            <path d="M26.6653751,12.6041667 L26.3416466,10.8727477 C26.1258266,9.69500162 25.9498889,8.43750669 25.8138284,7.10022523 C25.7481441,7.7524432 25.663694,8.41286265 25.5604757,9.08150338 C25.4572574,9.75014411 25.335274,10.4598311 25.1945218,11.2105856 L24.9270939,12.6041667 L26.6653751,12.6041667 Z" id="BETA"></path>
                            <path d="M9.42331414,14.6030405 C10.023857,14.6030405 10.4390698,14.4740065 10.6689651,14.2159347 C10.8988604,13.9578628 11.0138063,13.4909944 11.0138063,12.8153153 C11.0138063,12.1208674 10.8941687,11.6352304 10.6548899,11.3583896 C10.4203029,11.0768567 10.0097817,10.9360923 9.42331414,10.9360923 L9.42331414,14.6030405 Z" id="BETA"></path>
                            <path d="M9.42331414,9.77477477 C9.99101477,9.77477477 10.3851151,9.64339471 10.6056269,9.38063063 C10.8261387,9.10378991 10.936393,8.61815287 10.936393,7.92370495 C10.936393,6.75065104 10.5141426,6.16413288 9.6696293,6.16413288 L9.55702809,6.16413288 L9.4936899,6.16413288 C9.45615598,6.16413288 9.43269763,6.16647896 9.42331414,6.17117117 L9.42331414,9.77477477 Z" id="BETA"></path>
                        </g>
                        <path d="M0.264612854,1.03603604 L14.553707,1.03603604 C25.7350635,1.03603604 31.3256579,7.97853418 31.3256579,21.8637387 C31.3256579,27.1678193 30.5993873,31.1035908 29.1468244,33.6711712 C27.6942615,36.2387516 25.1269794,38.1812997 21.4449013,39.4988739 C25.667468,41.1880715 28.5556602,43.350212 30.1095648,45.9853604 C31.6972498,48.5867247 32.4910805,52.5056044 32.4910805,57.7421171 C32.4910805,72.100297 26.3431156,79.2792793 14.0470015,79.2792793 L0.264612854,79.2792793 L0.264612854,1.03603604 Z M10.19604,35.4954955 C14.2834845,35.4954955 17.1210067,34.549559 18.7086918,32.6576577 C20.2963769,30.6644044 21.0902075,27.1678178 21.0902075,22.1677928 C21.0902075,13.7218046 18.0500051,9.49887387 11.9695091,9.49887387 L11.1587804,9.49887387 L10.7027454,9.49887387 C10.4325012,9.49887387 10.263601,9.5157656 10.19604,9.54954955 L10.19604,35.4954955 Z M10.19604,70.259009 C14.5199482,70.259009 17.5094806,69.3299642 19.1647267,67.4718468 C20.8199729,65.6137294 21.6475835,62.2522766 21.6475835,57.3873874 C21.6475835,52.3873624 20.7861928,48.8907757 19.0633856,46.8975225 C17.374359,44.8704854 14.4186066,43.856982 10.19604,43.856982 L10.19604,70.259009 Z M42.9798836,1.03603604 L56.8636134,1.03603604 C62.606304,1.03603604 66.8794774,2.4042656 69.6832616,5.14076577 C73.2302176,8.6880808 75.003669,14.1103239 75.003669,21.4076577 C75.003669,27.0157938 74.0662733,31.517438 72.1914537,34.9127252 C70.3166341,38.3080125 67.639567,40.411032 64.1601721,41.2218468 L78.5506073,79.2792793 L67.859122,79.2792793 L53.5193573,40.9684685 L53.5193573,79.2792793 L42.9798836,79.2792793 L42.9798836,1.03603604 Z M53.5193573,35.6981982 C57.6068018,35.6981982 60.4949941,34.7522617 62.1840207,32.8603604 C63.8730474,30.968459 64.7175481,27.7759234 64.7175481,23.2826577 C64.7175481,20.8502131 64.5402029,18.7725311 64.1855073,17.0495495 C63.8308117,15.326568 63.2734413,13.924555 62.5133793,12.8434685 C61.7533173,11.762382 60.7736965,10.968471 59.5744876,10.4617117 C58.3752787,9.95495242 56.9480725,9.70157658 55.2928264,9.70157658 L53.5193573,9.70157658 L53.5193573,35.6981982 Z M86.7085653,1.03603604 L114.729378,1.03603604 L114.729378,9.95495495 L97.248039,9.95495495 L97.248039,34.7353604 L112.753226,34.7353604 L112.753226,43.6542793 L97.248039,43.6542793 L97.248039,70.3603604 L114.729378,70.3603604 L114.729378,79.2792793 L86.7085653,79.2792793 L86.7085653,1.03603604 Z M118.529669,1.03603604 L128.714448,1.03603604 L134.034856,37.3704955 L134.896255,42.7421171 C135.301621,45.647537 135.605642,48.2995376 135.808325,50.6981982 L136.365701,57.3367117 C136.399481,57.5056315 136.433261,57.8096825 136.467042,58.2488739 C136.500823,58.6880653 136.551493,59.2454921 136.619054,59.9211712 L136.872406,57.3873874 C137.277773,52.9616896 137.708468,48.8907843 138.164505,45.1745495 C138.620543,41.4583148 139.118798,38.029295 139.659286,34.8873874 L145.283717,1.03603604 L153.391005,1.03603604 L158.660741,33.9245495 C159.437694,38.7894387 160.087959,43.2995288 160.611557,47.454955 C161.135156,51.6103811 161.565851,55.579936 161.903656,59.3637387 C162.241462,55.3772323 162.621487,51.5259195 163.043744,47.8096847 C163.466,44.0934499 163.913586,40.4448377 164.386513,36.8637387 L165.146571,31.6441441 L169.65625,1.03603604 L179.739689,1.03603604 L165.90663,79.2792793 L157.698001,79.2792793 L152.174911,45.4786036 C152.141131,45.3434678 152.056681,44.7860409 151.921559,43.8063063 C151.786437,42.8265717 151.583756,41.4245587 151.313512,39.6002252 L150.249431,31.7961712 C150.18187,31.18806 150.072085,30.275907 149.920072,29.0596847 C149.76806,27.8434624 149.607605,26.3063156 149.438702,24.4481982 L149.185349,21.204955 C149.117788,21.9819859 149.050228,22.6576548 148.982667,23.231982 C148.915106,23.8063092 148.864436,24.2792774 148.830655,24.6509009 C148.661753,26.8806418 148.518188,28.6120434 148.399956,29.8451577 C148.281724,31.0782719 148.205719,31.8299536 148.171938,32.1002252 L147.107857,39.6002252 C146.871393,41.3232068 146.685603,42.6745447 146.550481,43.6542793 C146.415359,44.6340139 146.314019,45.2421159 146.246457,45.4786036 L140.520686,79.2792793 L132.058704,79.2792793 L118.529669,1.03603604 Z M185.921495,1.03603604 L200.21059,1.03603604 C211.391946,1.03603604 216.98254,7.97853418 216.98254,21.8637387 C216.98254,27.1678193 216.25627,31.1035908 214.803707,33.6711712 C213.351144,36.2387516 210.783862,38.1812997 207.101784,39.4988739 C211.324351,41.1880715 214.212543,43.350212 215.766447,45.9853604 C217.354132,48.5867247 218.147963,52.5056044 218.147963,57.7421171 C218.147963,72.100297 211.999998,79.2792793 199.703884,79.2792793 L185.921495,79.2792793 L185.921495,1.03603604 Z M195.852923,35.4954955 C199.940367,35.4954955 202.777889,34.549559 204.365574,32.6576577 C205.953259,30.6644044 206.74709,27.1678178 206.74709,22.1677928 C206.74709,13.7218046 203.706888,9.49887387 197.626392,9.49887387 L196.815663,9.49887387 L196.359628,9.49887387 C196.089384,9.49887387 195.920484,9.5157656 195.852923,9.54954955 L195.852923,35.4954955 Z M195.852923,70.259009 C200.176831,70.259009 203.166363,69.3299642 204.821609,67.4718468 C206.476855,65.6137294 207.304466,62.2522766 207.304466,57.3873874 C207.304466,52.3873624 206.443075,48.8907757 204.720268,46.8975225 C203.031242,44.8704854 200.075489,43.856982 195.852923,43.856982 L195.852923,70.259009 Z M262.890056,71.5259009 C259.816027,77.3367408 254.664573,80.2421171 247.435539,80.2421171 C239.834919,80.2421171 234.480785,77.1171484 231.372976,70.8671171 C228.298947,64.7522217 226.761956,53.8908438 226.761956,38.2826577 C226.761956,24.3636691 228.282057,14.5157947 231.322305,8.73873874 C234.396334,2.92789887 239.598458,0.0225225225 246.928834,0.0225225225 C253.482257,0.0225225225 258.346581,2.26912168 261.521951,6.76238739 C263.616344,9.76915918 265.136445,14.0427651 266.0823,19.5833333 C267.028155,24.7184941 267.501075,32.2184191 267.501075,42.0833333 C267.501075,55.90097 265.964084,65.715061 262.890056,71.5259009 Z M256.454896,43.1981982 C256.454896,29.6508332 255.846856,20.6644365 254.630757,16.2387387 C253.414657,11.779257 250.931825,9.54954955 247.182186,9.54954955 C243.432547,9.54954955 240.932825,11.593448 239.682945,15.6813063 C238.466846,19.8029485 237.858806,28.0798928 237.858806,40.5123874 C237.858806,51.9651474 238.500626,59.9042572 239.784286,64.329955 C241.101727,68.5191651 243.567669,70.6137387 247.182186,70.6137387 C250.729142,70.6137387 253.161304,68.6542989 254.478745,64.7353604 C255.796186,60.8502058 256.454896,53.6712235 256.454896,43.1981982 Z M271.60539,1.03603604 L281.84084,1.03603604 L287.262589,16.1880631 C289.390762,22.1678227 290.657513,26.5427789 291.06288,29.3130631 C291.434465,27.5900815 291.848271,25.9178009 292.304308,24.2961712 C292.760345,22.6745414 293.241711,21.052936 293.748419,19.4313063 L294.457806,17.1509009 L299.47419,1.03603604 L310.115005,1.03603604 L295.623229,39.5495495 L310.115005,79.2792793 L299.47419,79.2792793 L294.305795,64.3806306 C293.258598,61.4076428 292.414097,58.7387506 291.772267,56.3738739 C291.130437,54.0089972 290.674407,51.9144235 290.404162,50.0900901 C290.133918,52.3536149 289.677888,54.5157555 289.036058,56.5765766 L287.262589,62.1509009 L286.350519,65.0900901 L281.84084,79.2792793 L270.69332,79.2792793 L285.489119,39.5495495 L271.60539,1.03603604 Z" id="BREWBOX"></path>
                    </g>
                </g>
            </g>
        </g>
    </g>
</svg>